{
	"asset":{
		"generator":"Khronos glTF Blender I/O v4.3.47",
		"version":"2.0"
	},
	"scene":0,
	"scenes":[
		{
			"name":"Scene",
			"nodes":[
				0
			]
		}
	],
	"nodes":[
		{
			"mesh":0,
			"name":"Mball.006",
			"rotation":[
				-0.03962846100330353,
				-0.6781221628189087,
				0.036663394421339035,
				0.7329636812210083
			],
			"scale":[
				0.5652914047241211,
				0.47314244508743286,
				0.660075843334198
			],
			"translation":[
				-0.48892879486083984,
				0.06503094732761383,
				-0.38828933238983154
			]
		}
	],
	"materials":[
		{
			"doubleSided":true,
			"name":"Material.002",
			"pbrMetallicRoughness":{
				"baseColorFactor":[
					0,
					0,
					0,
					1
				],
				"metallicFactor":0,
				"roughnessFactor":0.5
			}
		}
	],
	"meshes":[
		{
			"name":"Mesh",
			"primitives":[
				{
					"attributes":{
						"POSITION":0,
						"NORMAL":1
					},
					"indices":2,
					"material":0
				}
			]
		}
	],
	"accessors":[
		{
			"bufferView":0,
			"componentType":5126,
			"count":958,
			"max":[
				5.947772026062012,
				1.25009024143219,
				1.1333106756210327
			],
			"min":[
				-2.115109443664551,
				-6.589479446411133,
				-5.949466705322266
			],
			"type":"VEC3"
		},
		{
			"bufferView":1,
			"componentType":5126,
			"count":958,
			"type":"VEC3"
		},
		{
			"bufferView":2,
			"componentType":5123,
			"count":5736,
			"type":"SCALAR"
		}
	],
	"bufferViews":[
		{
			"buffer":0,
			"byteLength":11496,
			"byteOffset":0,
			"target":34962
		},
		{
			"buffer":0,
			"byteLength":11496,
			"byteOffset":11496,
			"target":34962
		},
		{
			"buffer":0,
			"byteLength":11472,
			"byteOffset":22992,
			"target":34963
		}
	],
	"buffers":[
		{
			"byteLength":34464,
			"uri":"leftarm.bin"
		}
	]
}
