{
	"asset":{
		"generator":"Khronos glTF Blender I/O v4.3.47",
		"version":"2.0"
	},
	"scene":0,
	"scenes":[
		{
			"name":"Scene",
			"nodes":[
				0
			]
		}
	],
	"nodes":[
		{
			"mesh":0,
			"name":"Mball.005",
			"rotation":[
				-0.2209472358226776,
				0.43936264514923096,
				-0.25172659754753113,
				0.8335326910018921
			],
			"scale":[
				1.1782939434051514,
				0.5074918866157532,
				0.4945991635322571
			],
			"translation":[
				0,
				0,
				-0.5248768925666809
			]
		}
	],
	"materials":[
		{
			"doubleSided":true,
			"name":"Material.001",
			"pbrMetallicRoughness":{
				"baseColorFactor":[
					0,
					0,
					0,
					1
				],
				"metallicFactor":0,
				"roughnessFactor":0.5
			}
		}
	],
	"meshes":[
		{
			"name":"Mesh",
			"primitives":[
				{
					"attributes":{
						"POSITION":0,
						"NORMAL":1
					},
					"indices":2,
					"material":0
				}
			]
		}
	],
	"accessors":[
		{
			"bufferView":0,
			"componentType":5126,
			"count":666,
			"max":[
				2.319453239440918,
				1.3325626850128174,
				8.402220726013184
			],
			"min":[
				-2.1151092052459717,
				-3.9877002239227295,
				-1.1333107948303223
			],
			"type":"VEC3"
		},
		{
			"bufferView":1,
			"componentType":5126,
			"count":666,
			"type":"VEC3"
		},
		{
			"bufferView":2,
			"componentType":5123,
			"count":3984,
			"type":"SCALAR"
		}
	],
	"bufferViews":[
		{
			"buffer":0,
			"byteLength":7992,
			"byteOffset":0,
			"target":34962
		},
		{
			"buffer":0,
			"byteLength":7992,
			"byteOffset":7992,
			"target":34962
		},
		{
			"buffer":0,
			"byteLength":7968,
			"byteOffset":15984,
			"target":34963
		}
	],
	"buffers":[
		{
			"byteLength":23952,
			"uri":"rightarm.bin"
		}
	]
}
