{
	"asset":{
		"generator":"Khronos glTF Blender I/O v4.3.47",
		"version":"2.0"
	},
	"extensionsUsed":[
		"KHR_texture_transform"
	],
	"extensionsRequired":[
		"KHR_texture_transform"
	],
	"scene":0,
	"scenes":[
		{
			"extras":{
				"assets used":{
					"5f4d7688-736a-4f58-9203-122da17bddce":{
						"addonVersion":"3.9.0",
						"assetBaseId":"5f4d7688-736a-4f58-9203-122da17bddce",
						"assetType":"material",
						"author":{
							"aboutMe":"I am a 3D artist.",
							"aboutMeUrl":"https://www.artstation.com/sanchos1",
							"avatar128":"/avatar-redirect/bd8333a7-8139-47be-a759-e85899b3ffd7/128/",
							"firstName":"Sanchos",
							"fullName":"Sanchos ",
							"gravatarHash":"9e8a75a0f486c9a93df4469e644704b9",
							"id":"596121",
							"lastName":"",
							"socialNetworks":[]
						},
						"available_resolutions":[
							512,
							1024,
							2048
						],
						"canDownload":true,
						"canDownloadError":true,
						"category":"paper",
						"created":"2024-01-03T20:43:34.993271+01:00",
						"description":"Wrinkled paper. Texture 2k.",
						"dictParameters":{
							"animated":false,
							"engine":"cycles",
							"imageAltTextGen4v":"High-resolution 2K wrinkled paper texture for realistic PBR material in 3D modeling and Blender.",
							"materialStyle":"realistic",
							"megapixels":16,
							"nodeCount":15,
							"procedural":false,
							"purePbr":false,
							"sexualizedContent":false,
							"shaders":[
								"principled"
							],
							"textureCount":4,
							"textureResolutionMax":2048,
							"textureResolutionMin":2048,
							"textureSizeMeters":1,
							"uv":false
						},
						"displayName":"Wrinkled paper",
						"downloaded":0,
						"files":[
							{
								"created":"2024-01-03T20:45:16.159682+01:00",
								"downloadUrl":"https://www.blenderkit.com/api/v1/downloads/291247/",
								"fileThumbnail":"",
								"fileThumbnailLarge":"",
								"fileType":"blend",
								"filename":"",
								"modified":"2024-01-03T20:45:16.159701+01:00",
								"resolution":0,
								"url":""
							},
							{
								"created":"2024-01-08T15:15:50.736866+01:00",
								"downloadUrl":"https://www.blenderkit.com/api/v1/downloads/292741/",
								"fileThumbnail":"",
								"fileThumbnailLarge":"",
								"fileType":"resolution_0_5K",
								"filename":"",
								"modified":"2024-01-08T15:15:50.736885+01:00",
								"resolution":0,
								"url":""
							},
							{
								"created":"2024-01-08T15:15:48.174550+01:00",
								"downloadUrl":"https://www.blenderkit.com/api/v1/downloads/292740/",
								"fileThumbnail":"",
								"fileThumbnailLarge":"",
								"fileType":"resolution_1K",
								"filename":"",
								"modified":"2024-01-08T15:15:48.174570+01:00",
								"resolution":0,
								"url":""
							},
							{
								"created":"2024-01-08T15:15:45.334426+01:00",
								"downloadUrl":"https://www.blenderkit.com/api/v1/downloads/292738/",
								"fileThumbnail":"",
								"fileThumbnailLarge":"",
								"fileType":"resolution_2K",
								"filename":"",
								"modified":"2024-01-08T15:15:45.334449+01:00",
								"resolution":0,
								"url":"https://public.blenderkit.com/public-assets/assets/e03a9ea2584a41ddbb72557d6ded233e/files/resolution_2K_528f5b76-95cf-4f46-91df-937bd56d7805.blend",
								"file_name":"/Users/kaytlynjones/Documents/Fall 2024/assets/materials/wrinkled-paper_e03a9ea2-584a-41dd-bb72-557d6ded233e/wrinkled-paper_2K_528f5b76-95cf-4f46-91df-937bd56d7805.blend"
							},
							{
								"created":"2024-01-03T20:43:45.839907+01:00",
								"downloadUrl":"https://www.blenderkit.com/api/v1/downloads/291244/",
								"fileThumbnail":"https://public.blenderkit.com/thumbnails/assets/e03a9ea2584a41ddbb72557d6ded233e/files/thumbnail_1e53701b-59dc-46b5-8a03-544dd650d0c1.png.96x96_q85_crop-%2C.png",
								"fileThumbnailLarge":"https://public.blenderkit.com/thumbnails/assets/e03a9ea2584a41ddbb72557d6ded233e/files/thumbnail_1e53701b-59dc-46b5-8a03-544dd650d0c1.png.1024x1024_q85_crop-%2C.png",
								"fileType":"thumbnail",
								"filename":"",
								"modified":"2024-01-03T20:43:45.839926+01:00",
								"resolution":0,
								"url":""
							}
						],
						"filesSize":43782,
						"id":"e03a9ea2-584a-41dd-bb72-557d6ded233e",
						"isFree":true,
						"isPrivate":false,
						"lastBlendUpload":"2024-01-03T19:45:16.159682+00:00",
						"lastGltfUpload":"",
						"lastResolutionUpload":"2024-01-08T14:15:50.736866+00:00",
						"lastThumbnailUpload":"2024-01-03T19:43:45.839907+00:00",
						"lastUserInteraction":"2024-01-03T20:45:16.654769+01:00",
						"lastVideoUpload":"",
						"lastZipFileUpload":"",
						"license":"royalty_free",
						"max_resolution":2048,
						"name":"Wrinkled paper",
						"pk":75747,
						"ratingsAverage":{
							"bookmarks":1,
							"competition-2022-votes":null,
							"quality":8,
							"virtualPrice":null,
							"workingHours":1
						},
						"ratingsCount":{
							"bookmarks":51,
							"competition-2022-votes":0,
							"quality":1,
							"virtualPrice":0,
							"workingHours":1
						},
						"ratingsMedian":{
							"bookmarks":1,
							"competition-2022-votes":null,
							"quality":8,
							"virtualPrice":null,
							"workingHours":1
						},
						"ratingsSum":{
							"bookmarks":51,
							"competition-2022-votes":null,
							"quality":8,
							"score":80,
							"virtualPrice":null,
							"workingHours":1
						},
						"score":80,
						"showMarketingLabels":true,
						"sourceAppName":"blender",
						"sourceAppVersion":"3.6.7",
						"tags":[
							"Paper",
							"white",
							"wrinkled"
						],
						"texture_size_meters":1,
						"thumbnail":"thumbnail_1e53701b-59dc-46b5-8a03-544dd650d0c1.png.512x512_q85_crop-%2C.png.webp",
						"thumbnailLargeUrl":"https://public.blenderkit.com/thumbnails/assets/e03a9ea2584a41ddbb72557d6ded233e/files/thumbnail_1e53701b-59dc-46b5-8a03-544dd650d0c1.png.1024x1024_q85_crop-%2C.png",
						"thumbnailLargeUrlNonsquared":"https://public.blenderkit.com/thumbnails/assets/e03a9ea2584a41ddbb72557d6ded233e/files/thumbnail_1e53701b-59dc-46b5-8a03-544dd650d0c1.png.1024x1024_q85.png",
						"thumbnailLargeUrlNonsquaredWebp":"https://public.blenderkit.com/thumbnails/assets/e03a9ea2584a41ddbb72557d6ded233e/files/thumbnail_1e53701b-59dc-46b5-8a03-544dd650d0c1.png.1024x1024_q85.png.webp?webp_generated=1704358570",
						"thumbnailLargeUrlWebp":"https://public.blenderkit.com/thumbnails/assets/e03a9ea2584a41ddbb72557d6ded233e/files/thumbnail_1e53701b-59dc-46b5-8a03-544dd650d0c1.png.1024x1024_q85_crop-%2C.png.webp?webp_generated=1704358570",
						"thumbnailMiddleUrl":"https://public.blenderkit.com/thumbnails/assets/e03a9ea2584a41ddbb72557d6ded233e/files/thumbnail_1e53701b-59dc-46b5-8a03-544dd650d0c1.png.512x512_q85_crop-%2C.png",
						"thumbnailMiddleUrlNonsquared":"https://public.blenderkit.com/thumbnails/assets/e03a9ea2584a41ddbb72557d6ded233e/files/thumbnail_1e53701b-59dc-46b5-8a03-544dd650d0c1.png.512x512_q85.png",
						"thumbnailMiddleUrlNonsquaredWebp":"https://public.blenderkit.com/thumbnails/assets/e03a9ea2584a41ddbb72557d6ded233e/files/thumbnail_1e53701b-59dc-46b5-8a03-544dd650d0c1.png.512x512_q85.png.webp?webp_generated=1704358570",
						"thumbnailMiddleUrlWebp":"https://public.blenderkit.com/thumbnails/assets/e03a9ea2584a41ddbb72557d6ded233e/files/thumbnail_1e53701b-59dc-46b5-8a03-544dd650d0c1.png.512x512_q85_crop-%2C.png.webp?webp_generated=1704358570",
						"thumbnailSmallUrl":"https://public.blenderkit.com/thumbnails/assets/e03a9ea2584a41ddbb72557d6ded233e/files/thumbnail_1e53701b-59dc-46b5-8a03-544dd650d0c1.png.256x256_q85_crop-%2C.png",
						"thumbnailSmallUrlNonsquared":"https://public.blenderkit.com/thumbnails/assets/e03a9ea2584a41ddbb72557d6ded233e/files/thumbnail_1e53701b-59dc-46b5-8a03-544dd650d0c1.png.256x256_q85.png",
						"thumbnailSmallUrlNonsquaredWebp":"https://public.blenderkit.com/thumbnails/assets/e03a9ea2584a41ddbb72557d6ded233e/files/thumbnail_1e53701b-59dc-46b5-8a03-544dd650d0c1.png.256x256_q85.png.webp?webp_generated=1704358570",
						"thumbnailSmallUrlWebp":"https://public.blenderkit.com/thumbnails/assets/e03a9ea2584a41ddbb72557d6ded233e/files/thumbnail_1e53701b-59dc-46b5-8a03-544dd650d0c1.png.256x256_q85_crop-%2C.png.webp?webp_generated=1704358570",
						"thumbnailXlargeUrl":"https://public.blenderkit.com/thumbnails/assets/e03a9ea2584a41ddbb72557d6ded233e/files/thumbnail_1e53701b-59dc-46b5-8a03-544dd650d0c1.png.2048x2048_q85_crop-%2C.png",
						"thumbnailXlargeUrlNonsquared":"https://public.blenderkit.com/thumbnails/assets/e03a9ea2584a41ddbb72557d6ded233e/files/thumbnail_1e53701b-59dc-46b5-8a03-544dd650d0c1.png.2048x2048_q85.png",
						"thumbnailXlargeUrlNonsquaredWebp":"https://public.blenderkit.com/thumbnails/assets/e03a9ea2584a41ddbb72557d6ded233e/files/thumbnail_1e53701b-59dc-46b5-8a03-544dd650d0c1.png.2048x2048_q85.png.webp?webp_generated=1704358570",
						"thumbnailXlargeUrlWebp":"https://public.blenderkit.com/thumbnails/assets/e03a9ea2584a41ddbb72557d6ded233e/files/thumbnail_1e53701b-59dc-46b5-8a03-544dd650d0c1.png.2048x2048_q85_crop-%2C.png.webp?webp_generated=1704358570",
						"thumbnail_small":"thumbnail_1e53701b-59dc-46b5-8a03-544dd650d0c1.png.256x256_q85_crop-%2C.png.webp",
						"tooltip_data":{
							"aname":"Wrinkled paper",
							"author_text":"by Sanchos ",
							"quality":"8"
						},
						"url":"https://www.blenderkit.com/api/v1/assets/e03a9ea2-584a-41dd-bb72-557d6ded233e/",
						"verificationStatus":"validated",
						"versionNumber":1,
						"webpGeneratedTimestamp":1704358570,
						"resolution":"resolution_2K"
					}
				},
				"uuid":"63f35556-7bba-4db6-96a2-8a063254575d",
				"assets reported":{
					"5f4d7688-736a-4f58-9203-122da17bddce":true
				}
			},
			"name":"Scene",
			"nodes":[
				0
			]
		}
	],
	"nodes":[
		{
			"mesh":0,
			"name":"Mball.006",
			"scale":[
				2.441802740097046,
				2.441802740097046,
				2.441802740097046
			]
		}
	],
	"materials":[
		{
			"doubleSided":true,
			"extras":{
				"blenderkit":{
					"category":22,
					"name":"Wrinkled paper",
					"name_changed":1,
					"name_old":"Wrinkled paper",
					"description":"Wrinkled paper. Texture 2k.",
					"tags":"Paper, white, wrinkled",
					"thumbnail":"//19.png",
					"has_thumbnail":1,
					"thumbnail_generating_state":"",
					"texture_resolution_max":2048,
					"texture_resolution_min":2048,
					"texture_count":4,
					"node_count":15,
					"total_megapixels":16,
					"is_procedural":0,
					"shaders":"principled, ",
					"report":"",
					"asset_base_id":"5f4d7688-736a-4f58-9203-122da17bddce",
					"id":"e03a9ea2-584a-41dd-bb72-557d6ded233e",
					"upload_state":"100% - Asset successfully uploaded.",
					"uploading":0
				},
				"asset_data":{
					"addonVersion":"3.9.0",
					"assetBaseId":"5f4d7688-736a-4f58-9203-122da17bddce",
					"assetType":"material",
					"author":{
						"aboutMe":"I am a 3D artist.",
						"aboutMeUrl":"https://www.artstation.com/sanchos1",
						"avatar128":"/avatar-redirect/bd8333a7-8139-47be-a759-e85899b3ffd7/128/",
						"firstName":"Sanchos",
						"fullName":"Sanchos ",
						"gravatarHash":"9e8a75a0f486c9a93df4469e644704b9",
						"id":"596121",
						"lastName":"",
						"socialNetworks":[]
					},
					"available_resolutions":[
						512,
						1024,
						2048
					],
					"canDownload":true,
					"canDownloadError":true,
					"category":"paper",
					"created":"2024-01-03T20:43:34.993271+01:00",
					"description":"Wrinkled paper. Texture 2k.",
					"dictParameters":{
						"animated":false,
						"engine":"cycles",
						"imageAltTextGen4v":"High-resolution 2K wrinkled paper texture for realistic PBR material in 3D modeling and Blender.",
						"materialStyle":"realistic",
						"megapixels":16,
						"nodeCount":15,
						"procedural":false,
						"purePbr":false,
						"sexualizedContent":false,
						"shaders":[
							"principled"
						],
						"textureCount":4,
						"textureResolutionMax":2048,
						"textureResolutionMin":2048,
						"textureSizeMeters":1,
						"uv":false
					},
					"displayName":"Wrinkled paper",
					"downloaded":0,
					"files":[
						{
							"created":"2024-01-03T20:45:16.159682+01:00",
							"downloadUrl":"https://www.blenderkit.com/api/v1/downloads/291247/",
							"fileThumbnail":"",
							"fileThumbnailLarge":"",
							"fileType":"blend",
							"filename":"",
							"modified":"2024-01-03T20:45:16.159701+01:00",
							"resolution":0,
							"url":""
						},
						{
							"created":"2024-01-08T15:15:50.736866+01:00",
							"downloadUrl":"https://www.blenderkit.com/api/v1/downloads/292741/",
							"fileThumbnail":"",
							"fileThumbnailLarge":"",
							"fileType":"resolution_0_5K",
							"filename":"",
							"modified":"2024-01-08T15:15:50.736885+01:00",
							"resolution":0,
							"url":""
						},
						{
							"created":"2024-01-08T15:15:48.174550+01:00",
							"downloadUrl":"https://www.blenderkit.com/api/v1/downloads/292740/",
							"fileThumbnail":"",
							"fileThumbnailLarge":"",
							"fileType":"resolution_1K",
							"filename":"",
							"modified":"2024-01-08T15:15:48.174570+01:00",
							"resolution":0,
							"url":""
						},
						{
							"created":"2024-01-08T15:15:45.334426+01:00",
							"downloadUrl":"https://www.blenderkit.com/api/v1/downloads/292738/",
							"fileThumbnail":"",
							"fileThumbnailLarge":"",
							"fileType":"resolution_2K",
							"filename":"",
							"modified":"2024-01-08T15:15:45.334449+01:00",
							"resolution":0,
							"url":"https://public.blenderkit.com/public-assets/assets/e03a9ea2584a41ddbb72557d6ded233e/files/resolution_2K_528f5b76-95cf-4f46-91df-937bd56d7805.blend",
							"file_name":"/Users/kaytlynjones/Documents/Fall 2024/assets/materials/wrinkled-paper_e03a9ea2-584a-41dd-bb72-557d6ded233e/wrinkled-paper_2K_528f5b76-95cf-4f46-91df-937bd56d7805.blend"
						},
						{
							"created":"2024-01-03T20:43:45.839907+01:00",
							"downloadUrl":"https://www.blenderkit.com/api/v1/downloads/291244/",
							"fileThumbnail":"https://public.blenderkit.com/thumbnails/assets/e03a9ea2584a41ddbb72557d6ded233e/files/thumbnail_1e53701b-59dc-46b5-8a03-544dd650d0c1.png.96x96_q85_crop-%2C.png",
							"fileThumbnailLarge":"https://public.blenderkit.com/thumbnails/assets/e03a9ea2584a41ddbb72557d6ded233e/files/thumbnail_1e53701b-59dc-46b5-8a03-544dd650d0c1.png.1024x1024_q85_crop-%2C.png",
							"fileType":"thumbnail",
							"filename":"",
							"modified":"2024-01-03T20:43:45.839926+01:00",
							"resolution":0,
							"url":""
						}
					],
					"filesSize":43782,
					"id":"e03a9ea2-584a-41dd-bb72-557d6ded233e",
					"isFree":true,
					"isPrivate":false,
					"lastBlendUpload":"2024-01-03T19:45:16.159682+00:00",
					"lastGltfUpload":"",
					"lastResolutionUpload":"2024-01-08T14:15:50.736866+00:00",
					"lastThumbnailUpload":"2024-01-03T19:43:45.839907+00:00",
					"lastUserInteraction":"2024-01-03T20:45:16.654769+01:00",
					"lastVideoUpload":"",
					"lastZipFileUpload":"",
					"license":"royalty_free",
					"max_resolution":2048,
					"name":"Wrinkled paper",
					"pk":75747,
					"ratingsAverage":{
						"bookmarks":1,
						"competition-2022-votes":null,
						"quality":8,
						"virtualPrice":null,
						"workingHours":1
					},
					"ratingsCount":{
						"bookmarks":51,
						"competition-2022-votes":0,
						"quality":1,
						"virtualPrice":0,
						"workingHours":1
					},
					"ratingsMedian":{
						"bookmarks":1,
						"competition-2022-votes":null,
						"quality":8,
						"virtualPrice":null,
						"workingHours":1
					},
					"ratingsSum":{
						"bookmarks":51,
						"competition-2022-votes":null,
						"quality":8,
						"score":80,
						"virtualPrice":null,
						"workingHours":1
					},
					"score":80,
					"showMarketingLabels":true,
					"sourceAppName":"blender",
					"sourceAppVersion":"3.6.7",
					"tags":[
						"Paper",
						"white",
						"wrinkled"
					],
					"texture_size_meters":1,
					"thumbnail":"thumbnail_1e53701b-59dc-46b5-8a03-544dd650d0c1.png.512x512_q85_crop-%2C.png.webp",
					"thumbnailLargeUrl":"https://public.blenderkit.com/thumbnails/assets/e03a9ea2584a41ddbb72557d6ded233e/files/thumbnail_1e53701b-59dc-46b5-8a03-544dd650d0c1.png.1024x1024_q85_crop-%2C.png",
					"thumbnailLargeUrlNonsquared":"https://public.blenderkit.com/thumbnails/assets/e03a9ea2584a41ddbb72557d6ded233e/files/thumbnail_1e53701b-59dc-46b5-8a03-544dd650d0c1.png.1024x1024_q85.png",
					"thumbnailLargeUrlNonsquaredWebp":"https://public.blenderkit.com/thumbnails/assets/e03a9ea2584a41ddbb72557d6ded233e/files/thumbnail_1e53701b-59dc-46b5-8a03-544dd650d0c1.png.1024x1024_q85.png.webp?webp_generated=1704358570",
					"thumbnailLargeUrlWebp":"https://public.blenderkit.com/thumbnails/assets/e03a9ea2584a41ddbb72557d6ded233e/files/thumbnail_1e53701b-59dc-46b5-8a03-544dd650d0c1.png.1024x1024_q85_crop-%2C.png.webp?webp_generated=1704358570",
					"thumbnailMiddleUrl":"https://public.blenderkit.com/thumbnails/assets/e03a9ea2584a41ddbb72557d6ded233e/files/thumbnail_1e53701b-59dc-46b5-8a03-544dd650d0c1.png.512x512_q85_crop-%2C.png",
					"thumbnailMiddleUrlNonsquared":"https://public.blenderkit.com/thumbnails/assets/e03a9ea2584a41ddbb72557d6ded233e/files/thumbnail_1e53701b-59dc-46b5-8a03-544dd650d0c1.png.512x512_q85.png",
					"thumbnailMiddleUrlNonsquaredWebp":"https://public.blenderkit.com/thumbnails/assets/e03a9ea2584a41ddbb72557d6ded233e/files/thumbnail_1e53701b-59dc-46b5-8a03-544dd650d0c1.png.512x512_q85.png.webp?webp_generated=1704358570",
					"thumbnailMiddleUrlWebp":"https://public.blenderkit.com/thumbnails/assets/e03a9ea2584a41ddbb72557d6ded233e/files/thumbnail_1e53701b-59dc-46b5-8a03-544dd650d0c1.png.512x512_q85_crop-%2C.png.webp?webp_generated=1704358570",
					"thumbnailSmallUrl":"https://public.blenderkit.com/thumbnails/assets/e03a9ea2584a41ddbb72557d6ded233e/files/thumbnail_1e53701b-59dc-46b5-8a03-544dd650d0c1.png.256x256_q85_crop-%2C.png",
					"thumbnailSmallUrlNonsquared":"https://public.blenderkit.com/thumbnails/assets/e03a9ea2584a41ddbb72557d6ded233e/files/thumbnail_1e53701b-59dc-46b5-8a03-544dd650d0c1.png.256x256_q85.png",
					"thumbnailSmallUrlNonsquaredWebp":"https://public.blenderkit.com/thumbnails/assets/e03a9ea2584a41ddbb72557d6ded233e/files/thumbnail_1e53701b-59dc-46b5-8a03-544dd650d0c1.png.256x256_q85.png.webp?webp_generated=1704358570",
					"thumbnailSmallUrlWebp":"https://public.blenderkit.com/thumbnails/assets/e03a9ea2584a41ddbb72557d6ded233e/files/thumbnail_1e53701b-59dc-46b5-8a03-544dd650d0c1.png.256x256_q85_crop-%2C.png.webp?webp_generated=1704358570",
					"thumbnailXlargeUrl":"https://public.blenderkit.com/thumbnails/assets/e03a9ea2584a41ddbb72557d6ded233e/files/thumbnail_1e53701b-59dc-46b5-8a03-544dd650d0c1.png.2048x2048_q85_crop-%2C.png",
					"thumbnailXlargeUrlNonsquared":"https://public.blenderkit.com/thumbnails/assets/e03a9ea2584a41ddbb72557d6ded233e/files/thumbnail_1e53701b-59dc-46b5-8a03-544dd650d0c1.png.2048x2048_q85.png",
					"thumbnailXlargeUrlNonsquaredWebp":"https://public.blenderkit.com/thumbnails/assets/e03a9ea2584a41ddbb72557d6ded233e/files/thumbnail_1e53701b-59dc-46b5-8a03-544dd650d0c1.png.2048x2048_q85.png.webp?webp_generated=1704358570",
					"thumbnailXlargeUrlWebp":"https://public.blenderkit.com/thumbnails/assets/e03a9ea2584a41ddbb72557d6ded233e/files/thumbnail_1e53701b-59dc-46b5-8a03-544dd650d0c1.png.2048x2048_q85_crop-%2C.png.webp?webp_generated=1704358570",
					"thumbnail_small":"thumbnail_1e53701b-59dc-46b5-8a03-544dd650d0c1.png.256x256_q85_crop-%2C.png.webp",
					"tooltip_data":{
						"aname":"Wrinkled paper",
						"author_text":"by Sanchos ",
						"quality":"8"
					},
					"url":"https://www.blenderkit.com/api/v1/assets/e03a9ea2-584a-41dd-bb72-557d6ded233e/",
					"verificationStatus":"validated",
					"versionNumber":1,
					"webpGeneratedTimestamp":1704358570,
					"resolution":"resolution_2K"
				}
			},
			"name":"Wrinkled paper",
			"normalTexture":{
				"extensions":{
					"KHR_texture_transform":{
						"offset":[
							0,
							0.5
						],
						"scale":[
							0.5,
							0.5
						]
					}
				},
				"index":0
			},
			"pbrMetallicRoughness":{
				"baseColorTexture":{
					"extensions":{
						"KHR_texture_transform":{
							"offset":[
								0,
								0.5
							],
							"scale":[
								0.5,
								0.5
							]
						}
					},
					"index":1
				},
				"metallicFactor":0,
				"metallicRoughnessTexture":{
					"extensions":{
						"KHR_texture_transform":{
							"offset":[
								0,
								0.5
							],
							"scale":[
								0.5,
								0.5
							]
						}
					},
					"index":2
				}
			}
		}
	],
	"meshes":[
		{
			"name":"Mesh",
			"primitives":[
				{
					"attributes":{
						"POSITION":0,
						"NORMAL":1,
						"TEXCOORD_0":2,
						"COLOR_0":3,
						"COLOR_1":4
					},
					"indices":5,
					"material":0
				}
			]
		}
	],
	"textures":[
		{
			"sampler":0,
			"source":0
		},
		{
			"sampler":0,
			"source":1
		},
		{
			"sampler":0,
			"source":2
		}
	],
	"images":[
		{
			"mimeType":"image/jpeg",
			"name":"DefaultMaterial_Normal",
			"uri":"DefaultMaterial_Normal.jpg"
		},
		{
			"mimeType":"image/jpeg",
			"name":"texture",
			"uri":"texture.jpg"
		},
		{
			"mimeType":"image/jpeg",
			"name":"DefaultMaterial_Roughness",
			"uri":"DefaultMaterial_Roughness.jpg"
		}
	],
	"accessors":[
		{
			"bufferView":0,
			"componentType":5126,
			"count":24275,
			"max":[
				4.821987152099609,
				6.055893898010254,
				5.582298278808594
			],
			"min":[
				-1.2108670473098755,
				-6.516438007354736,
				-8.0233793258667
			],
			"type":"VEC3"
		},
		{
			"bufferView":1,
			"componentType":5126,
			"count":24275,
			"type":"VEC3"
		},
		{
			"bufferView":2,
			"componentType":5126,
			"count":24275,
			"type":"VEC2"
		},
		{
			"bufferView":3,
			"componentType":5121,
			"count":24275,
			"normalized":true,
			"type":"VEC4"
		},
		{
			"bufferView":4,
			"componentType":5123,
			"count":24275,
			"normalized":true,
			"type":"VEC4"
		},
		{
			"bufferView":5,
			"componentType":5123,
			"count":112848,
			"type":"SCALAR"
		}
	],
	"bufferViews":[
		{
			"buffer":0,
			"byteLength":291300,
			"byteOffset":0,
			"target":34962
		},
		{
			"buffer":0,
			"byteLength":291300,
			"byteOffset":291300,
			"target":34962
		},
		{
			"buffer":0,
			"byteLength":194200,
			"byteOffset":582600,
			"target":34962
		},
		{
			"buffer":0,
			"byteLength":97100,
			"byteOffset":776800,
			"target":34962
		},
		{
			"buffer":0,
			"byteLength":194200,
			"byteOffset":873900,
			"target":34962
		},
		{
			"buffer":0,
			"byteLength":225696,
			"byteOffset":1068100,
			"target":34963
		}
	],
	"samplers":[
		{
			"magFilter":9729,
			"minFilter":9987
		}
	],
	"buffers":[
		{
			"byteLength":1293796,
			"uri":"sun2.bin"
		}
	]
}
