{
	"asset":{
		"generator":"Khronos glTF Blender I/O v4.3.47",
		"version":"2.0"
	},
	"extensionsUsed":[
		"KHR_texture_transform"
	],
	"extensionsRequired":[
		"KHR_texture_transform"
	],
	"scene":0,
	"scenes":[
		{
			"name":"Scene",
			"nodes":[
				0
			]
		}
	],
	"nodes":[
		{
			"mesh":0,
			"name":"Mball.006",
			"scale":[
				2.441802740097046,
				2.441802740097046,
				2.441802740097046
			]
		}
	],
	"materials":[
		{
			"doubleSided":true,
			"name":"Wrinkled paper",
			"normalTexture":{
				"extensions":{
					"KHR_texture_transform":{
						"offset":[
							0,
							0.5
						],
						"scale":[
							0.5,
							0.5
						]
					}
				},
				"index":0
			},
			"pbrMetallicRoughness":{
				"baseColorTexture":{
					"extensions":{
						"KHR_texture_transform":{
							"offset":[
								0,
								0.5
							],
							"scale":[
								0.5,
								0.5
							]
						}
					},
					"index":1
				},
				"metallicFactor":0,
				"metallicRoughnessTexture":{
					"extensions":{
						"KHR_texture_transform":{
							"offset":[
								0,
								0.5
							],
							"scale":[
								0.5,
								0.5
							]
						}
					},
					"index":2
				}
			}
		}
	],
	"meshes":[
		{
			"name":"Mesh",
			"primitives":[
				{
					"attributes":{
						"POSITION":0,
						"NORMAL":1,
						"TEXCOORD_0":2,
						"COLOR_0":3,
						"COLOR_1":4
					},
					"indices":5,
					"material":0
				}
			]
		}
	],
	"textures":[
		{
			"sampler":0,
			"source":0
		},
		{
			"sampler":0,
			"source":1
		},
		{
			"sampler":0,
			"source":2
		}
	],
	"images":[
		{
			"mimeType":"image/jpeg",
			"name":"DefaultMaterial_Normal",
			"uri":"DefaultMaterial_Normal.jpg"
		},
		{
			"mimeType":"image/jpeg",
			"name":"DefaultMaterial_BaseColor",
			"uri":"DefaultMaterial_BaseColor.jpg"
		},
		{
			"mimeType":"image/png",
			"name":"DefaultMaterial_Roughness",
			"uri":"DefaultMaterial_Roughness.png"
		}
	],
	"accessors":[
		{
			"bufferView":0,
			"componentType":5126,
			"count":24275,
			"max":[
				4.821987152099609,
				6.055893898010254,
				5.582298278808594
			],
			"min":[
				-1.2108670473098755,
				-6.516438007354736,
				-8.0233793258667
			],
			"type":"VEC3"
		},
		{
			"bufferView":1,
			"componentType":5126,
			"count":24275,
			"type":"VEC3"
		},
		{
			"bufferView":2,
			"componentType":5126,
			"count":24275,
			"type":"VEC2"
		},
		{
			"bufferView":3,
			"componentType":5121,
			"count":24275,
			"normalized":true,
			"type":"VEC4"
		},
		{
			"bufferView":4,
			"componentType":5123,
			"count":24275,
			"normalized":true,
			"type":"VEC4"
		},
		{
			"bufferView":5,
			"componentType":5123,
			"count":112848,
			"type":"SCALAR"
		}
	],
	"bufferViews":[
		{
			"buffer":0,
			"byteLength":291300,
			"byteOffset":0,
			"target":34962
		},
		{
			"buffer":0,
			"byteLength":291300,
			"byteOffset":291300,
			"target":34962
		},
		{
			"buffer":0,
			"byteLength":194200,
			"byteOffset":582600,
			"target":34962
		},
		{
			"buffer":0,
			"byteLength":97100,
			"byteOffset":776800,
			"target":34962
		},
		{
			"buffer":0,
			"byteLength":194200,
			"byteOffset":873900,
			"target":34962
		},
		{
			"buffer":0,
			"byteLength":225696,
			"byteOffset":1068100,
			"target":34963
		}
	],
	"samplers":[
		{
			"magFilter":9729,
			"minFilter":9987
		}
	],
	"buffers":[
		{
			"byteLength":1293796,
			"uri":"sun3.bin"
		}
	]
}
